<svg xmlns="http://www.w3.org/2000/svg" viewBox="0 0 2631.09 1176.4"><defs><style>.cls-1{fill:#01bdbb;}.cls-2{fill:#fff;}</style></defs><g id="Capa_2" data-name="Capa 2"><g id="Capa_1-2" data-name="Capa 1"><path class="cls-1" d="M242,850.33a238,238,0,0,1-115.65-29.84,235.27,235.27,0,0,1-92.44-94.16C6.39,675.43.57,628.79,0,623.64l101.38-11.26,0-.3c0,.32,4.13,32.15,22.29,65.76C136.14,701,153.74,719,175.94,731.36a136,136,0,0,0,68.67,16.94c50.2-.95,93.32-28.22,115.33-72.94,8.8-17.88,15.21-38.76,19.05-62.11.63-14.93,4.65-59.43,29.46-106.52,27.44-52.06,85.41-116.7,205.81-129l1.59-.14c4.67-.33,29.72-1.52,63.8,7.81,45.19,12.36,86.52,38,119.52,74.17q4,4.34,7.72,9c26-32.89,89.88-97.09,192-96,6.78,0,40.47.82,81.22,15.8,43.93,16.16,81,43.08,109,78.92,32.69-39.83,96.17-97.24,189.26-94.72,8.49,0,41.1.93,80.18,14.95a241.45,241.45,0,0,1,88.53,55.27c27.89-50.29,67.61-89.59,115-113.75,20.75-10.58,44.14-18.23,69.51-22.73,26.49-4.7,39.2-28.9,37.76-72l0-1.59c0-4,.39-40.32,17-83.39,22.9-59.45,65.53-104,123.28-128.77,67.58-29,143.78-27.29,209.08,4.72,35.24,17.27,64.17,41.58,86,72.24,26.82,37.69,42.17,84.13,45.62,138l.1,1.52v1.52L2252,602.51a180.81,180.81,0,0,0,13.75,59.12c15.71,37.09,41.2,60.72,77.93,72.25a144.46,144.46,0,0,0,88-.94c25.72-8.52,46.73-21.51,62.43-38.62,21.2-23.09,33-54.7,35.15-94l101.85,5.51c-3.43,63.5-24.25,116.47-61.86,157.43-27.6,30.06-63.09,52.42-105.5,66.47a243.93,243.93,0,0,1-150.61,1.43C2246.39,810.26,2196.9,763.85,2170,697c-19.12-47.51-20-88.93-20-93.5v-.16l-1.57-362.7c-4.23-60.72-28.65-101.21-74.62-123.74-38.56-18.91-83.74-19.85-124-2.59-31.41,13.49-54,36.64-67.18,68.81a155.39,155.39,0,0,0-11.32,49.28c1.61,56.32-13.16,101.09-43.89,133a143.68,143.68,0,0,1-78,41.27c-15.43,2.74-29.22,7.17-41,13.17-65.7,33.51-87.58,105.48-90.79,117.35a89.83,89.83,0,0,1-6.41,23.91c-8.23,18.68-24.55,31.4-43.66,34-13.34,1.84-46.16,1-66.51-45.52-39.75-73.24-116-75.1-122.13-75.12l-1.75.07-1-.09c-30.88-1-60.41,11-87.74,35.75a198.13,198.13,0,0,0-35.6,42.81c-20.57,39.16-49.55,44.71-65.08,44.51-31.25-.4-53.66-23.33-64.46-45.07-40-75.16-118.07-77.88-124.2-78l-.94,0-.18,0c-31.69-.41-61.06,10.52-87.23,32.48a161.18,161.18,0,0,0-29.1,31.78c-7.84,14.91-16.31,26.43-25.84,35.19-17.49,16.08-35.41,19.81-47.36,20.11-16.13.4-46.58-4.82-69.43-44.45a121.19,121.19,0,0,0-15.21-21.38c-43.75-47.95-93.67-49.07-100.71-49-33.8,3.67-62,13.32-84,28.7a129.43,129.43,0,0,0-40.44,46.27c-17.05,32.35-17.82,63.43-17.82,63.73v3.9l-.59,3.85c-5.36,34.84-15.06,66.69-28.82,94.65a231.46,231.46,0,0,1-87.61,96.24,235.29,235.29,0,0,1-117.31,33.63C245,850.31,243.5,850.33,242,850.33Zm972.74-343.07v0Z"/><path class="cls-2" d="M1193.72,1046.25q0,37.57-15.14,55.13T1129.86,1119q-34.69,0-49.72-17.46t-15-54.8V848.93H672.25c-.61,0-1.21,0-1.8,0-31.53.47-59.79,4.56-77.89,19.84q-29.05,24.53-29.06,67.4,0,22.75,8.84,39.77A100.18,100.18,0,0,0,596,1005.81q14.81,12.83,44.42,26.74,31.59,15,41.87,21.88t15.58,14.25a28.28,28.28,0,0,1,5.31,16.9q0,17-12,25.64t-34.58,8.61q-18.78,0-41.43-6t-55.35-20.55V1157q39.76,19.44,91.48,19.44,56.12,0,87.61-25.19t31.49-68.94q0-31.59-16.79-53.36t-62.1-43.43Q657.2,969.15,648,962.84t-13.37-13a29.24,29.24,0,0,1-4.19-15.8q0-14.58,10.38-23.64c3.32-2.9,7.74-4,12.87-4.42H827.15v266h68.5v-266H996.83v151.14q0,55.47,34.47,87.39t96.79,31.93q41.31,0,71.59-14.36t46.3-41.32q16-27,16-62.76v-209h-68.28Z"/><path class="cls-2" d="M1540.52,889.69q-43.76-41.76-122.86-41.76H1316.24V1171h91.48q85.72,0,131.15-42.43t45.4-122.19Q1584.27,931.46,1540.52,889.69Zm-126.39,224.73h-29.39V904.06h36.46q91.92,0,91.92,104.07Q1513.12,1114.42,1414.13,1114.42Z"/><path class="cls-2" d="M2031.66,886.71q-39.44-42.87-113.9-42.87T1803.4,886.38q-39.89,42.54-39.88,123.19t39.77,123.74q39.78,43.1,114,43.09t114-43.09q39.78-43.08,39.78-123.3Q2071.11,929.58,2031.66,886.71ZM1917.31,1119q-40.87,0-61.43-27.4T1835.33,1010q0-54.13,20.77-81.65t61.66-27.51q81.52,0,81.53,109.16Q1999.29,1119,1917.31,1119Z"/><path class="cls-2" d="M1713.78,890.24h-16.46V847.71h-57.5v42.53h-14.25a8.52,8.52,0,0,0-8.5,8.5v138.63a8.52,8.52,0,0,0,8.5,8.5h14.25v124.9h57.5v-124.9h16.46a8.52,8.52,0,0,0,8.5-8.5V898.74A8.52,8.52,0,0,0,1713.78,890.24Z"/></g></g></svg>